inDegrees=yes
name=ik_OwnShooting_orientations2.mot
DataType=double
version=3
OpenSimVersion=4.3-2021-08-27-4bc7ad9
endheader
time	pelvis_tilt	pelvis_list	pelvis_rotation	pelvis_tx	pelvis_ty	pelvis_tz	hip_flexion_r	hip_adduction_r	hip_rotation_r	knee_angle_r	knee_angle_r_beta	ankle_angle_r	subtalar_angle_r	mtp_angle_r	hip_flexion_l	hip_adduction_l	hip_rotation_l	knee_angle_l	knee_angle_l_beta	ankle_angle_l	subtalar_angle_l	mtp_angle_l	lumbar_extension	lumbar_bending	lumbar_rotation	arm_flex_r	arm_add_r	arm_rot_r	elbow_flex_r	pro_sup_r	wrist_flex_r	wrist_dev_r	arm_flex_l	arm_add_l	arm_rot_l	elbow_flex_l	pro_sup_l	wrist_flex_l	wrist_dev_l
0.01	0.003762032133524517	0.02842265232910218	-122.1004860287189	0	0.9399999999999999	0	44.07066245874196	-10.10495549758635	0	59.93210408085162	1.046012543858791	-5.013015482168527	0	0	44.07066245874196	-10.10495549758635	0	59.93210408085162	1.046012543858791	-5.013015482168527	0	0	0.04864413460233895	0.01596085031539333	-0.003931901374445127	-0.5331963626460255	-0.1149144007132709	-0.03314264477149997	1.047066398328655	44.92693191003903	0	0	0	-11.85470339725966	0	76.55017127120733	44.92693191003903	0	0
0.02	0.006509557756680795	-0.1563391152931104	-122.1193930545999	0	0.9399999999999999	0	44.08214581661781	-10.10155092137729	0	59.93290533102082	1.046026528312375	-5.012498171505342	0	0	44.08214581661781	-10.10155092137729	0	59.93290533102082	1.046026528312375	-5.012498171505342	0	0	9.043613221376706	-1.136135620832932	22.2030920371984	-1.737269202081553	53.35935317546616	-71.3961503330419	0.004979691316114228	44.92891278955434	0	0	0	-11.87757340934977	0	76.53101593187412	44.92891278955434	0	0
0.03	-0.02596087849779431	-0.2938637448183563	-122.1138260384972	0	0.9399999999999999	0	44.08271109443586	-10.1013316849157	0	59.93293772974464	1.046027093776779	-5.012462954784596	0	0	44.08271109443586	-10.1013316849157	0	59.93293772974464	1.046027093776779	-5.012462954784596	0	0	8.986924008372709	-1.130808901980696	22.2122794799202	-1.507435205143929	53.46425737129449	-71.53363869986157	0.004981438604466607	44.92903411923512	0	0	0	-11.87855652116513	0	76.53007288904038	44.92903411923512	0	0
0.04	0.0063154261783774	-0.3402925416715504	-122.0957407729671	0	0.9399999999999999	0	44.08288509193079	-10.10126474252919	0	59.93294776079943	1.046027268851713	-5.012452220480124	0	0	44.08288509193079	-10.10126474252919	0	59.93294776079943	1.046027268851713	-5.012452220480124	0	0	9.005567795285712	-1.151792565654621	22.21296628995638	-1.551648105193759	53.43405421599885	-71.57050804700569	0.004997284626807336	44.9290712227772	0	0	0	-11.87886043525322	0	76.52978261315793	44.9290712227772	0	0
0.05	0.02434805514532914	-0.3961139465182708	-122.1335882659474	0	0.9399999999999999	0	44.0836545774109	-10.10096693199483	0	59.9329918632418	1.04602803858454	-5.012404427915709	0	0	44.0836545774109	-10.10096693199483	0	59.9329918632418	1.04602803858454	-5.012404427915709	0	0	8.98353016915828	-1.185995849936577	22.29286924859344	-0.818526349300865	53.33234131539862	-72.52927995081866	0.004943433151325038	44.92923614335506	0	0	0	-11.88019910509684	0	76.52849889514846	44.92923614335506	0	0
0.06	0.0286393437945119	-0.4278432850582807	-122.1308093990446	0	0.9399999999999999	0	44.08431389988007	-10.1007123427087	0	59.93302966828137	1.046028698406955	-5.012363608461023	0	0	44.08431389988007	-10.1007123427087	0	59.93302966828137	1.046028698406955	-5.012363608461023	0	0	8.948414525141198	-1.212183686046238	22.28401484117815	-0.05703641642835257	53.30828023288939	-72.83999082930072	0.004924727995936623	44.92937721854387	0	0	0	-11.88134678607438	0	76.52739896084819	44.92937721854387	0	0
0.07000000000000001	0.04960503381079472	-0.4314472648895696	-122.1627828858189	0	0.9399999999999999	0	44.08453707126131	-10.10062663624172	0	59.93304251168211	1.046028922566585	-5.012349884481406	0	0	44.08453707126131	-10.10062663624172	0	59.93304251168211	1.046028922566585	-5.012349884481406	0	0	8.933547719009999	-1.237298759465835	22.28102415081072	0.1917210702965532	53.20564247456565	-72.75950997321455	0.004911393841146257	44.92942476222093	0	0	0	-11.88173633244175	0	76.52702664941944	44.92942476222093	0	0
0.08	0.01805467631587592	-0.4488286560749874	-122.1885102282552	0	0.9399999999999999	0	44.0851971316122	-10.10037216252402	0	59.93308034043844	1.046029582802935	-5.012309119265059	0	0	44.0851971316122	-10.10037216252402	0	59.93308034043844	1.046029582802935	-5.012309119265059	0	0	8.876885056615851	-1.225337519028137	22.29112137987313	0.4611411890869896	53.26599501817157	-73.46101572635821	0.004877735586367036	44.92956585276311	0	0	0	-11.88288526500065	0	76.52592548454213	44.92956585276311	0	0
0.09	0.03712436526152361	-0.501042296933604	-122.2077072870604	0	0.9399999999999999	0	44.08548516085876	-10.1002614729312	0	59.93309687532407	1.04602987139113	-5.012291403590417	0	0	44.08548516085876	-10.1002614729312	0	59.93309687532407	1.04602987139113	-5.012291403590417	0	0	8.811920460001833	-1.260012547689564	22.34427412509023	0.2390300228848941	53.49807829101541	-73.2096853977323	0.004919280698189779	44.9296272672273	0	0	0	-11.88338730189951	0	76.52544497197438	44.9296272672273	0	0
0.1	0.03258011721815102	-0.5026900483568314	-122.2289663106455	0	0.9399999999999999	0	44.1028076905963	-10.09409952317508	0	59.93413759694991	1.046048035410098	-5.011332138159509	0	0	44.1028076905963	-10.09409952317508	0	59.93413759694991	1.046048035410098	-5.011332138159509	0	0	8.820040535259686	-1.24186203925892	22.27786462364698	-1.615235134231466	54.33204439256127	-70.83101214762407	0.005161471094052373	44.93311532807349	0	0	0	-11.91436122251881	0	76.496546794764	44.93311532807349	0	0
0.11	0.05467184953936477	-0.463145935461909	-122.2814269072816	0	0.9399999999999999	0	44.10338953491601	-10.09388561330536	0	59.93417108579948	1.046048619900786	-5.011298517092504	0	0	44.10338953491601	-10.09388561330536	0	59.93417108579948	1.046048619900786	-5.011298517092504	0	0	8.879277433020405	-1.216336783040271	22.31679902766063	-4.678150298937448	55.33431113834214	-68.62965737797963	0.005426173945748197	44.93323553468418	0	0	0	-11.91538419743767	0	76.49557613119637	44.93323553468418	0	0
0.12	0.01415541832763087	-0.4714018933904905	-122.278874734113	0	0.9399999999999999	0	44.10418198066075	-10.09359468368548	0	59.93421667978586	1.046049415665967	-5.011252824894942	0	0	44.10418198066075	-10.09359468368548	0	59.93421667978586	1.046049415665967	-5.011252824894942	0	0	8.819775280898497	-1.154496464607154	22.24826849698359	-7.867494544283441	56.07019359425073	-65.59646468424528	0.005734548678661106	44.93339910212332	0	0	0	-11.91677746637379	0	76.49425413160125	44.93339910212332	0	0
0.13	0.01112899895031321	-0.4891801268912808	-122.2653554086384	0	0.9399999999999999	0	44.10501647285918	-10.09328907676907	0	59.93426470979929	1.046050253947841	-5.011204876347107	0	0	44.10501647285918	-10.09328907676907	0	59.93426470979929	1.046050253947841	-5.011204876347107	0	0	8.789410957443311	-1.17672728777928	22.23120552531579	-10.54702044783906	55.48914197029129	-63.49996590870695	0.005649771708547771	44.93357104275125	0	0	0	-11.91824547930211	0	76.49286198898524	44.93357104275125	0	0
0.14	-0.00146020988861964	-0.4535451135271266	-122.273014722028	0	0.9399999999999999	0	44.11649083898935	-10.08958560739372	0	59.93495219331783	1.046062252798793	-5.010648541443906	0	0	44.11649083898935	-10.08958560739372	0	59.93495219331783	1.046062252798793	-5.010648541443906	0	0	8.826996785085155	-1.136947959442306	22.20782457413676	-12.68221842884392	56.15675039901701	-64.48717700875059	0.005618572589536449	44.93572362149735	0	0	0	-11.93917027301695	0	76.47372061356103	44.93572362149735	0	0
0.15	-0.04783585647089203	-0.3496444191969778	-122.2649558551824	0	0.9399999999999999	0	44.13020476989592	-10.08509125864638	0	59.9357853371685	1.04607679390213	-5.009969299944925	0	0	44.13020476989592	-10.08509125864638	0	59.9357853371685	1.04607679390213	-5.009969299944925	0	0	8.881740482197788	-1.066931160122104	22.19997753194913	-14.73726262144353	56.47176732384868	-61.50290443431356	0.005917975423669479	44.93832340275731	0	0	0	-11.96422301145474	0	76.45084309847924	44.93832340275731	0	0
0.16	-0.05099463637959316	-0.3102533850948099	-122.2681110911238	0	0.9399999999999999	0	44.13026404605763	-10.08507115969314	0	59.93578880139901	1.046076854364358	-5.009966232799883	0	0	44.13026404605763	-10.08507115969314	0	59.93578880139901	1.046076854364358	-5.009966232799883	0	0	8.938721526863146	-1.092511936683918	22.24263490880055	-14.46701667948991	56.44359978950444	-61.2080349939796	0.005930938080725728	44.93833494254608	0	0	0	-11.96432948421034	0	76.45074421347533	44.93833494254608	0	0
0.17	-0.01754184865611092	-0.2910240885018861	-122.2880832024405	0	0.9399999999999999	0	44.13037078823083	-10.08503483597025	0	59.93579502188445	1.04607696293231	-5.009960685858998	0	0	44.13037078823083	-10.08503483597025	0	59.93579502188445	1.04607696293231	-5.009960685858998	0	0	8.988902235790196	-1.146673146706103	22.21031457999025	-14.21489978682138	56.3669296603471	-61.06213321667708	0.005920301554195742	44.93835578445938	0	0	0	-11.9645208297805	0	76.45056614501271	44.93835578445938	0	0
0.18	-0.0332026846742288	-0.3069529102183603	-122.315880113069	0	0.9399999999999999	0	44.13113363267037	-10.08477331750507	0	59.93583916768181	1.046077733421825	-5.00992070633441	0	0	44.13113363267037	-10.08477331750507	0	59.93583916768181	1.046077733421825	-5.00992070633441	0	0	8.931367329607538	-1.180167200272394	22.36706681214037	-13.95984940005449	56.50141538821672	-61.51628689255809	0.005895719330107684	44.93850566906005	0	0	0	-11.96588175188689	0	76.44929355556808	44.93850566906005	0	0
0.19	-0.0566865136968671	-0.3018880330868428	-122.3451967529506	0	0.9399999999999999	0	44.13188614411654	-10.08451594999932	0	59.93588273375249	1.046078493793201	-5.009881398348344	0	0	44.13188614411654	-10.08451594999932	0	59.93588273375249	1.046078493793201	-5.009881398348344	0	0	8.928707948000268	-1.249588116041535	22.42654926251	-12.55326564553752	56.49318979208108	-62.1811907615634	0.005845197814378492	44.9386532716854	0	0	0	-11.9672250070657	0	76.4480382046719	44.9386532716854	0	0
0.2	-0.04505695202639589	-0.318732303335854	-122.3166529439901	0	0.9399999999999999	0	44.13254980385159	-10.08428949305475	0	59.93592116824322	1.04607916460161	-5.00984684402645	0	0	44.13254980385159	-10.08428949305475	0	59.93592116824322	1.04607916460161	-5.00984684402645	0	0	8.951785725986984	-1.330070314905269	22.41248972362813	-11.52294058462421	56.53924288748085	-62.71599199163111	0.005818231526812696	44.93878323197949	0	0	0	-11.96841026810038	0	76.44693107827867	44.93878323197949	0	0
